<?xml version="1.0" encoding="utf-8"?>
<!-- Generator: Adobe Illustrator 24.3.0, SVG Export Plug-In . SVG Version: 6.00 Build 0)  -->
<svg version="1.1" id="Layer_1" xmlns="http://www.w3.org/2000/svg" xmlns:xlink="http://www.w3.org/1999/xlink" x="0px" y="0px"
	 viewBox="0 0 600 600" style="enable-background:new 0 0 600 600;" xml:space="preserve">
<style type="text/css">
	.st0{fill:#02155B;}
	.st1{fill:#FFFFFF;}
</style>
<g>
	<g>
		<path class="st0" d="M300,554.13C159.87,554.13,45.87,440.13,45.87,300S159.87,45.87,300,45.87S554.13,159.87,554.13,300
			S440.13,554.13,300,554.13z M300,60C167.66,60,60,167.66,60,300s107.66,240,240,240s240-107.66,240-240S432.34,60,300,60z"/>
	</g>
	<g>
		<rect x="295.29" y="156.52" class="st0" width="9.42" height="240.46"/>
	</g>
	<g>
		<g>
			<path class="st0" d="M261.26,321.91l13.78,4.65v3.31h-65.49v-3.31l15.3-4.47l-40.71-94.57l5.1-2.15l-37.04,96.8l15.57,4.47v3.22
				h-38.12v-3.22l13.69-4.65l46.88-118.9h19.06L261.26,321.91z M161.24,287.55v-7.88h62.54v7.88H161.24z"/>
		</g>
	</g>
	<g>
		<g>
			<path class="st0" d="M401.11,277.52c9.48,0,18.18,1.54,26.08,4.61c7.9,3.08,14.75,7.45,20.53,13.11
				c5.78,5.67,10.27,12.42,13.46,20.27c3.19,7.84,4.79,16.54,4.79,26.08c0,9.78-1.67,18.76-5.01,26.93
				c-3.34,8.17-8.07,15.24-14.18,21.2c-6.11,5.96-13.32,10.56-21.61,13.78c-8.29,3.22-17.36,4.83-27.2,4.83
				c-9.48,0-18.18-1.54-26.08-4.61c-7.9-3.07-14.76-7.44-20.58-13.11c-5.81-5.67-10.3-12.42-13.46-20.27
				c-3.16-7.84-4.74-16.56-4.74-26.17c0-9.72,1.67-18.67,5.01-26.84c3.34-8.17,8.07-15.24,14.18-21.2
				c6.11-5.96,13.32-10.56,21.61-13.78C382.2,279.13,391.27,277.52,401.11,277.52z M400.75,400.63c5.96,0,11.23-1.78,15.79-5.33
				c4.56-3.55,8.16-9.12,10.78-16.73c2.62-7.61,3.94-17.52,3.94-29.75c0-13.78-1.34-25.39-4.03-34.85
				c-2.68-9.45-6.49-16.61-11.41-21.48c-4.92-4.86-10.78-7.29-17.58-7.29c-5.9,0-11.15,1.78-15.75,5.32
				c-4.59,3.55-8.2,9.13-10.83,16.73c-2.63,7.6-3.94,17.52-3.94,29.75c0,13.72,1.34,25.32,4.03,34.8
				c2.69,9.48,6.49,16.66,11.41,21.52C388.09,398.2,393.95,400.63,400.75,400.63z"/>
		</g>
	</g>
</g>
</svg>
