<?xml version="1.0" encoding="utf-8"?>
<!-- Generator: Adobe Illustrator 24.3.0, SVG Export Plug-In . SVG Version: 6.00 Build 0)  -->
<svg version="1.1" id="Layer_1" xmlns="http://www.w3.org/2000/svg" xmlns:xlink="http://www.w3.org/1999/xlink" x="0px" y="0px"
	 viewBox="0 0 1000 300" style="enable-background:new 0 0 1000 300;" xml:space="preserve">
<style type="text/css">
	.st0{fill:#02155B;}
	.st1{fill:#FFFFFF;}
</style>
<g>
	<g>
		<path class="st0" d="M133.37,230.84c-44.58,0-80.84-36.27-80.84-80.84s36.27-80.84,80.84-80.84s80.84,36.27,80.84,80.84
			S177.95,230.84,133.37,230.84z M133.37,73.65c-42.1,0-76.35,34.25-76.35,76.35s34.25,76.35,76.35,76.35s76.35-34.25,76.35-76.35
			S175.47,73.65,133.37,73.65z"/>
	</g>
	<g>
		<rect x="131.87" y="104.36" class="st0" width="3" height="76.49"/>
	</g>
	<g>
		<g>
			<path class="st0" d="M121.05,156.97l4.38,1.48v1.05H104.6v-1.05l4.87-1.42l-12.95-30.08l1.62-0.68l-11.78,30.79l4.95,1.42v1.02
				H79.18v-1.02l4.35-1.48l14.91-37.82h6.06L121.05,156.97z M89.23,146.04v-2.51h19.89v2.51H89.23z"/>
		</g>
	</g>
	<g>
		<g>
			<path class="st0" d="M165.54,142.85c3.02,0,5.78,0.49,8.3,1.47c2.51,0.98,4.69,2.37,6.53,4.17c1.84,1.8,3.27,3.95,4.28,6.45
				c1.01,2.49,1.52,5.26,1.52,8.3c0,3.11-0.53,5.97-1.59,8.57c-1.06,2.6-2.57,4.85-4.51,6.75c-1.94,1.9-4.24,3.36-6.87,4.38
				c-2.64,1.03-5.52,1.54-8.65,1.54c-3.02,0-5.78-0.49-8.3-1.47c-2.51-0.98-4.7-2.37-6.55-4.17c-1.85-1.8-3.28-3.95-4.28-6.45
				c-1.01-2.49-1.51-5.27-1.51-8.32c0-3.09,0.53-5.94,1.59-8.54c1.06-2.6,2.57-4.85,4.51-6.75c1.94-1.9,4.24-3.36,6.87-4.38
				C159.52,143.36,162.41,142.85,165.54,142.85z M165.42,182.01c1.9,0,3.57-0.56,5.02-1.69c1.45-1.13,2.59-2.9,3.43-5.32
				c0.83-2.42,1.25-5.57,1.25-9.46c0-4.38-0.43-8.08-1.28-11.09c-0.85-3.01-2.06-5.28-3.63-6.83c-1.57-1.55-3.43-2.32-5.59-2.32
				c-1.88,0-3.55,0.56-5.01,1.69c-1.46,1.13-2.61,2.9-3.44,5.32c-0.84,2.42-1.25,5.57-1.25,9.46c0,4.36,0.43,8.05,1.28,11.07
				c0.85,3.02,2.06,5.3,3.63,6.84C161.4,181.24,163.26,182.01,165.42,182.01z"/>
		</g>
	</g>
	<g>
		<g>
			<path class="st0" d="M302.09,155.86l-5.97-13.95h-26.96l-5.9,13.95h-3.52l21.43-50.33h3.02l21.43,50.33H302.09z M282.68,109.85
				l-12.22,28.91h24.37L282.68,109.85z"/>
		</g>
		<g>
			<path class="st0" d="M366.66,131.92c-0.24,5.08-1.39,9.47-3.45,13.16c-2.06,3.69-4.87,6.53-8.41,8.52
				c-3.55,1.99-7.65,2.98-12.29,2.98c-4.79,0-9.12-1.1-12.98-3.31c-3.86-2.2-6.88-5.27-9.06-9.2c-2.18-3.93-3.27-8.36-3.27-13.3
				c0-4.99,1.09-9.46,3.27-13.41c2.18-3.95,5.18-7.05,8.99-9.27c3.81-2.23,8.06-3.34,12.76-3.34c5.56,0,10.41,1.43,14.56,4.28
				c4.14,2.85,7.03,6.63,8.66,11.32h-3.45c-1.63-3.74-4.18-6.73-7.66-8.99c-3.48-2.25-7.51-3.38-12.12-3.38
				c-4.07,0-7.78,0.97-11.11,2.91c-3.33,1.94-5.94,4.65-7.84,8.12c-1.89,3.48-2.84,7.39-2.84,11.76c0,4.36,0.95,8.26,2.84,11.68
				c1.89,3.43,4.52,6.1,7.87,8.02c3.35,1.92,7.14,2.88,11.36,2.88c5.75,0,10.41-1.59,13.98-4.78c3.57-3.19,5.76-7.68,6.58-13.48
				h-23.01v-3.16H366.66z"/>
		</g>
		<g>
			<path class="st0" d="M385.57,105.53h3.24v50.33h-3.24V105.53z"/>
		</g>
		<g>
			<path class="st0" d="M413.75,152.7h24.01v3.16h-27.25v-50.33h3.24V152.7z"/>
		</g>
		<g>
			<path class="st0" d="M458.4,152.7h24.95v3.16h-28.18v-50.33h27.39v3.16H458.4v19.41h22.29v3.09H458.4V152.7z"/>
		</g>
		<g>
			<path class="st0" d="M539.58,153.31c-3.93-2.23-7.01-5.32-9.24-9.28c-2.23-3.95-3.35-8.4-3.35-13.34c0-4.94,1.11-9.38,3.35-13.34
				c2.23-3.95,5.31-7.05,9.24-9.27c3.93-2.23,8.36-3.34,13.3-3.34c4.94,0,9.37,1.11,13.3,3.34c3.93,2.23,7.02,5.32,9.27,9.27
				s3.38,8.4,3.38,13.34c0,4.94-1.13,9.38-3.38,13.34c-2.25,3.96-5.35,7.05-9.27,9.28c-3.93,2.23-8.37,3.34-13.3,3.34
				C547.94,156.65,543.51,155.54,539.58,153.31z M564.53,150.47c3.45-1.96,6.15-4.67,8.09-8.12c1.94-3.45,2.91-7.33,2.91-11.65
				c0-4.32-0.97-8.2-2.91-11.65c-1.94-3.45-4.64-6.16-8.09-8.12c-3.45-1.96-7.33-2.95-11.65-2.95c-4.27,0-8.12,0.98-11.58,2.95
				c-3.45,1.97-6.16,4.67-8.12,8.12c-1.97,3.45-2.95,7.33-2.95,11.65c0,4.31,0.98,8.2,2.95,11.65c1.97,3.45,4.68,6.16,8.12,8.12
				c3.45,1.97,7.31,2.95,11.58,2.95C557.2,153.42,561.08,152.44,564.53,150.47z"/>
		</g>
		<g>
			<path class="st0" d="M622.98,107.47c2.54,1.29,4.49,3.1,5.86,5.43c1.37,2.33,2.05,4.97,2.05,7.95c0,2.97-0.68,5.63-2.05,7.98
				c-1.37,2.35-3.32,4.17-5.86,5.46c-2.54,1.29-5.51,1.94-8.92,1.94H601.2v19.63h-3.24v-50.33h16.11
				C617.47,105.53,620.44,106.18,622.98,107.47z M623.95,129.69c2.42-2.25,3.63-5.2,3.63-8.84c0-3.64-1.22-6.58-3.67-8.81
				c-2.44-2.23-5.78-3.34-9.99-3.34H601.2v24.37h12.73C618.19,133.07,621.53,131.95,623.95,129.69z"/>
		</g>
		<g>
			<path class="st0" d="M651.89,152.7h24.95v3.16h-28.19v-50.33h27.39v3.16h-24.16v19.41h22.29v3.09h-22.29V152.7z"/>
		</g>
		<g>
			<path class="st0" d="M714.37,134.51h-14.6v21.35h-3.24v-50.33h18.33c3.07,0,5.78,0.62,8.12,1.87c2.35,1.25,4.17,2.97,5.47,5.18
				c1.29,2.21,1.94,4.72,1.94,7.55c0,3.69-1.13,6.82-3.38,9.38c-2.25,2.56-5.27,4.16-9.06,4.78l12.8,21.57h-3.74L714.37,134.51z
				 M723.75,111.86c-2.23-2.11-5.21-3.16-8.95-3.16h-15.03v22.72h14.96c3.74,0,6.73-1.07,8.99-3.2c2.25-2.13,3.38-4.85,3.38-8.16
				C727.09,116.7,725.98,113.97,723.75,111.86z"/>
		</g>
		<g>
			<path class="st0" d="M784.4,155.86l-5.97-13.95h-26.96l-5.9,13.95h-3.52l21.43-50.33h3.02l21.43,50.33H784.4z M764.98,109.85
				l-12.22,28.91h24.37L764.98,109.85z"/>
		</g>
		<g>
			<path class="st0" d="M830.34,105.53v3.16H813.8v47.17h-3.24V108.7h-16.54v-3.16H830.34z"/>
		</g>
		<g>
			<path class="st0" d="M854.86,153.31c-3.93-2.23-7.01-5.32-9.24-9.28c-2.23-3.95-3.34-8.4-3.34-13.34c0-4.94,1.11-9.38,3.34-13.34
				c2.23-3.95,5.31-7.05,9.24-9.27c3.93-2.23,8.36-3.34,13.3-3.34c4.94,0,9.37,1.11,13.3,3.34c3.93,2.23,7.02,5.32,9.28,9.27
				c2.25,3.95,3.38,8.4,3.38,13.34c0,4.94-1.13,9.38-3.38,13.34c-2.25,3.96-5.35,7.05-9.28,9.28c-3.93,2.23-8.37,3.34-13.3,3.34
				C863.22,156.65,858.79,155.54,854.86,153.31z M879.81,150.47c3.45-1.96,6.15-4.67,8.09-8.12s2.91-7.33,2.91-11.65
				c0-4.32-0.97-8.2-2.91-11.65c-1.94-3.45-4.64-6.16-8.09-8.12c-3.45-1.96-7.33-2.95-11.65-2.95c-4.27,0-8.12,0.98-11.58,2.95
				c-3.45,1.97-6.16,4.67-8.12,8.12c-1.97,3.45-2.95,7.33-2.95,11.65c0,4.31,0.98,8.2,2.95,11.65c1.96,3.45,4.67,6.16,8.12,8.12
				c3.45,1.97,7.31,2.95,11.58,2.95C872.48,153.42,876.36,152.44,879.81,150.47z"/>
		</g>
		<g>
			<path class="st0" d="M931.07,134.51h-14.6v21.35h-3.24v-50.33h18.33c3.07,0,5.78,0.62,8.12,1.87c2.35,1.25,4.17,2.97,5.47,5.18
				c1.29,2.21,1.94,4.72,1.94,7.55c0,3.69-1.13,6.82-3.38,9.38c-2.25,2.56-5.27,4.16-9.06,4.78l12.8,21.57h-3.74L931.07,134.51z
				 M940.46,111.86c-2.23-2.11-5.21-3.16-8.95-3.16h-15.03v22.72h14.96c3.74,0,6.73-1.07,8.99-3.2c2.25-2.13,3.38-4.85,3.38-8.16
				C943.8,116.7,942.69,113.97,940.46,111.86z"/>
		</g>
	</g>
	<g>
		<g>
			<path class="st0" d="M306.52,194.44c-0.15,3.18-0.87,5.92-2.16,8.22c-1.29,2.31-3.04,4.08-5.26,5.33
				c-2.22,1.24-4.78,1.86-7.68,1.86c-3,0-5.7-0.69-8.11-2.07c-2.41-1.38-4.3-3.29-5.66-5.75c-1.36-2.46-2.05-5.23-2.05-8.31
				c0-3.12,0.68-5.91,2.05-8.38c1.36-2.47,3.24-4.4,5.62-5.8c2.38-1.39,5.04-2.09,7.98-2.09c3.47,0,6.51,0.89,9.1,2.67
				c2.59,1.78,4.4,4.14,5.41,7.08h-2.16c-1.02-2.34-2.61-4.21-4.79-5.62c-2.17-1.41-4.7-2.11-7.57-2.11c-2.55,0-4.86,0.61-6.94,1.82
				c-2.08,1.21-3.72,2.91-4.9,5.08c-1.18,2.17-1.78,4.62-1.78,7.35c0,2.73,0.59,5.16,1.78,7.3c1.18,2.14,2.82,3.81,4.92,5.01
				c2.1,1.2,4.46,1.8,7.1,1.8c3.59,0,6.51-1,8.74-2.99c2.23-1.99,3.6-4.8,4.11-8.43H289.9v-1.98H306.52z"/>
		</g>
		<g>
			<path class="st0" d="M340.81,196.06h-9.12v13.35h-2.02v-31.46h11.46c1.92,0,3.61,0.39,5.08,1.17c1.47,0.78,2.61,1.86,3.42,3.24
				s1.21,2.95,1.21,4.72c0,2.31-0.7,4.26-2.11,5.86c-1.41,1.6-3.3,2.6-5.66,2.99l8,13.48h-2.34L340.81,196.06z M346.68,181.91
				c-1.39-1.32-3.26-1.98-5.6-1.98h-9.39v14.2h9.35c2.34,0,4.21-0.67,5.62-2c1.41-1.33,2.11-3.03,2.11-5.1
				C348.77,184.93,348.07,183.22,346.68,181.91z"/>
		</g>
		<g>
			<path class="st0" d="M379.77,207.81c-2.46-1.39-4.38-3.33-5.77-5.8c-1.39-2.47-2.09-5.25-2.09-8.34c0-3.09,0.7-5.86,2.09-8.34
				c1.39-2.47,3.32-4.4,5.77-5.8c2.46-1.39,5.23-2.09,8.31-2.09c3.09,0,5.86,0.7,8.31,2.09c2.46,1.39,4.39,3.32,5.8,5.8
				c1.41,2.47,2.11,5.25,2.11,8.34c0,3.09-0.7,5.86-2.11,8.34c-1.41,2.47-3.34,4.4-5.8,5.8c-2.46,1.39-5.23,2.09-8.31,2.09
				C385,209.9,382.23,209.21,379.77,207.81z M395.37,206.04c2.16-1.23,3.84-2.92,5.06-5.08c1.21-2.16,1.82-4.58,1.82-7.28
				s-0.61-5.12-1.82-7.28c-1.21-2.16-2.9-3.85-5.06-5.08c-2.16-1.23-4.58-1.84-7.28-1.84c-2.67,0-5.08,0.61-7.24,1.84
				c-2.16,1.23-3.85,2.92-5.08,5.08c-1.23,2.16-1.84,4.58-1.84,7.28s0.61,5.12,1.84,7.28c1.23,2.16,2.92,3.85,5.08,5.08
				c2.16,1.23,4.57,1.84,7.24,1.84C390.78,207.88,393.21,207.27,395.37,206.04z"/>
		</g>
		<g>
			<path class="st0" d="M464.7,177.95h2.11l-9.93,31.46h-1.84l-9.71-28.18l-9.71,28.18h-1.84l-9.93-31.46h2.16l8.81,27.91
				l9.62-27.91h1.84l9.62,27.86L464.7,177.95z"/>
		</g>
		<g>
			<path class="st0" d="M507.98,177.95v1.98h-10.34v29.48h-2.02v-29.48h-10.34v-1.98H507.98z"/>
		</g>
		<g>
			<path class="st0" d="M551.21,177.95h2.02v31.46h-2.02v-15.37h-19.28v15.37h-2.02v-31.46h2.02v14.11h19.28V177.95z"/>
		</g>
		<g>
			<path class="st0" d="M627.2,209.41l-3.73-8.72h-16.85l-3.68,8.72h-2.2l13.39-31.46h1.89l13.39,31.46H627.2z M615.07,180.65
				l-7.64,18.07h15.23L615.07,180.65z"/>
		</g>
		<g>
			<path class="st0" d="M668.11,179.93c2.44,1.32,4.34,3.17,5.68,5.55c1.35,2.38,2.02,5.1,2.02,8.16c0,3.09-0.67,5.83-2.02,8.22
				c-1.35,2.4-3.24,4.26-5.68,5.57c-2.44,1.32-5.26,1.98-8.47,1.98h-9.17v-31.46h9.17C662.85,177.95,665.67,178.61,668.11,179.93z
				 M667.03,205.7c2.14-1.15,3.8-2.77,4.97-4.85c1.17-2.08,1.75-4.49,1.75-7.21c0-2.7-0.59-5.08-1.75-7.15
				c-1.17-2.07-2.82-3.68-4.97-4.83c-2.14-1.15-4.62-1.73-7.44-1.73h-7.1v27.5h7.1C662.41,207.43,664.89,206.85,667.03,205.7z"/>
		</g>
		<g>
			<path class="st0" d="M720.08,177.95h2.2l-12.85,31.46h-1.84l-13.08-31.46h2.25l11.73,28.4L720.08,177.95z"/>
		</g>
		<g>
			<path class="st0" d="M743.5,177.95h2.02v31.46h-2.02V177.95z"/>
		</g>
		<g>
			<path class="st0" d="M771.7,207.23c-1.96-1.78-2.94-4.17-2.94-7.17h2.07c0,2.4,0.79,4.3,2.38,5.71c1.59,1.41,3.85,2.11,6.79,2.11
				c2.67,0,4.73-0.61,6.2-1.84c1.47-1.23,2.2-2.82,2.2-4.76c0-1.53-0.4-2.74-1.19-3.64c-0.79-0.9-1.78-1.57-2.97-2.02
				c-1.18-0.45-2.78-0.91-4.79-1.39c-2.19-0.54-3.95-1.08-5.28-1.62c-1.33-0.54-2.46-1.36-3.37-2.47c-0.91-1.11-1.37-2.61-1.37-4.49
				c0-1.56,0.39-2.96,1.17-4.2c0.78-1.24,1.93-2.22,3.46-2.92c1.53-0.7,3.37-1.06,5.53-1.06c2.07,0,3.86,0.38,5.37,1.15
				c1.51,0.76,2.67,1.82,3.48,3.17c0.81,1.35,1.21,2.91,1.21,4.67h-2.07c0-2.07-0.72-3.74-2.16-5.03c-1.44-1.29-3.41-1.93-5.93-1.93
				c-2.55,0-4.52,0.57-5.93,1.71c-1.41,1.14-2.11,2.61-2.11,4.4c0,1.41,0.37,2.53,1.12,3.37s1.69,1.48,2.83,1.91
				c1.14,0.43,2.73,0.91,4.76,1.42c2.25,0.57,4.05,1.12,5.42,1.66c1.36,0.54,2.52,1.39,3.46,2.54c0.94,1.15,1.42,2.72,1.42,4.7
				c0,1.68-0.41,3.18-1.24,4.49c-0.82,1.32-2.02,2.35-3.6,3.1c-1.57,0.75-3.45,1.12-5.64,1.12
				C776.42,209.9,773.66,209.01,771.7,207.23z"/>
		</g>
		<g>
			<path class="st0" d="M819.94,207.81c-2.46-1.39-4.38-3.33-5.78-5.8c-1.39-2.47-2.09-5.25-2.09-8.34c0-3.09,0.7-5.86,2.09-8.34
				c1.39-2.47,3.32-4.4,5.78-5.8c2.46-1.39,5.23-2.09,8.31-2.09c3.09,0,5.86,0.7,8.31,2.09c2.46,1.39,4.39,3.32,5.8,5.8
				c1.41,2.47,2.11,5.25,2.11,8.34c0,3.09-0.71,5.86-2.11,8.34c-1.41,2.47-3.34,4.4-5.8,5.8c-2.46,1.39-5.23,2.09-8.31,2.09
				C825.16,209.9,822.39,209.21,819.94,207.81z M835.53,206.04c2.16-1.23,3.84-2.92,5.06-5.08c1.21-2.16,1.82-4.58,1.82-7.28
				s-0.61-5.12-1.82-7.28c-1.21-2.16-2.9-3.85-5.06-5.08c-2.16-1.23-4.58-1.84-7.28-1.84c-2.67,0-5.08,0.61-7.24,1.84
				c-2.16,1.23-3.85,2.92-5.08,5.08c-1.23,2.16-1.84,4.58-1.84,7.28s0.61,5.12,1.84,7.28c1.23,2.16,2.92,3.85,5.08,5.08
				c2.16,1.23,4.57,1.84,7.24,1.84C830.95,207.88,833.37,207.27,835.53,206.04z"/>
		</g>
		<g>
			<path class="st0" d="M878.89,196.06h-9.12v13.35h-2.02v-31.46h11.46c1.92,0,3.61,0.39,5.08,1.17c1.47,0.78,2.61,1.86,3.41,3.24
				c0.81,1.38,1.21,2.95,1.21,4.72c0,2.31-0.71,4.26-2.11,5.86c-1.41,1.6-3.3,2.6-5.66,2.99l8,13.48h-2.34L878.89,196.06z
				 M884.76,181.91c-1.39-1.32-3.26-1.98-5.59-1.98h-9.39v14.2h9.35c2.34,0,4.21-0.67,5.62-2c1.41-1.33,2.11-3.03,2.11-5.1
				C886.85,184.93,886.15,183.22,884.76,181.91z"/>
		</g>
		<g>
			<path class="st0" d="M912.84,207.23c-1.96-1.78-2.94-4.17-2.94-7.17h2.07c0,2.4,0.79,4.3,2.38,5.71
				c1.59,1.41,3.85,2.11,6.79,2.11c2.67,0,4.73-0.61,6.2-1.84c1.47-1.23,2.2-2.82,2.2-4.76c0-1.53-0.4-2.74-1.19-3.64
				c-0.79-0.9-1.78-1.57-2.97-2.02c-1.18-0.45-2.78-0.91-4.79-1.39c-2.19-0.54-3.95-1.08-5.28-1.62c-1.33-0.54-2.46-1.36-3.37-2.47
				c-0.91-1.11-1.37-2.61-1.37-4.49c0-1.56,0.39-2.96,1.17-4.2c0.78-1.24,1.93-2.22,3.46-2.92c1.53-0.7,3.37-1.06,5.53-1.06
				c2.07,0,3.86,0.38,5.37,1.15c1.51,0.76,2.67,1.82,3.48,3.17c0.81,1.35,1.21,2.91,1.21,4.67h-2.07c0-2.07-0.72-3.74-2.16-5.03
				c-1.44-1.29-3.41-1.93-5.93-1.93c-2.55,0-4.52,0.57-5.93,1.71c-1.41,1.14-2.11,2.61-2.11,4.4c0,1.41,0.37,2.53,1.12,3.37
				s1.69,1.48,2.83,1.91c1.14,0.43,2.73,0.91,4.76,1.42c2.25,0.57,4.05,1.12,5.42,1.66c1.36,0.54,2.52,1.39,3.46,2.54
				c0.94,1.15,1.42,2.72,1.42,4.7c0,1.68-0.41,3.18-1.24,4.49c-0.82,1.32-2.02,2.35-3.6,3.1c-1.57,0.75-3.45,1.12-5.64,1.12
				C917.57,209.9,914.81,209.01,912.84,207.23z"/>
		</g>
	</g>
</g>
</svg>
