<?xml version="1.0" encoding="utf-8"?>
<!-- Generator: Adobe Illustrator 24.3.0, SVG Export Plug-In . SVG Version: 6.00 Build 0)  -->
<svg version="1.1" id="Layer_1" xmlns="http://www.w3.org/2000/svg" xmlns:xlink="http://www.w3.org/1999/xlink" x="0px" y="0px"
	 viewBox="0 0 800 500" style="enable-background:new 0 0 800 500;" xml:space="preserve">
<style type="text/css">
	.st0{fill:#02155B;}
	.st1{fill:#FFFFFF;}
</style>
<rect x="-30.36" y="-68.24" class="st0" width="860.71" height="636.49"/>
<g>
	<g>
		<g>
			<g>
				<g>
					<path class="st1" d="M400,288.74c-67.65,0-122.7-55.04-122.7-122.7S332.35,43.35,400,43.35s122.7,55.04,122.7,122.7
						S467.65,288.74,400,288.74z M400,50.17c-63.89,0-115.87,51.98-115.87,115.87S336.11,281.92,400,281.92
						s115.87-51.98,115.87-115.87S463.89,50.17,400,50.17z"/>
				</g>
			</g>
			<g>
				<rect x="397.73" y="96.78" class="st1" width="4.55" height="116.09"/>
			</g>
			<g>
				<g>
					<path class="st1" d="M381.3,176.63l6.65,2.24v1.6h-31.62v-1.6l7.39-2.16l-19.65-45.66l2.46-1.04l-17.88,46.74l7.52,2.16v1.55
						h-18.4v-1.55l6.61-2.25L347,119.26h9.2L381.3,176.63z M333.01,160.04v-3.8h30.19v3.8H333.01z"/>
				</g>
			</g>
			<g>
				<g>
					<path class="st1" d="M448.82,155.19c4.58,0,8.78,0.74,12.59,2.22c3.82,1.49,7.12,3.59,9.91,6.33c2.79,2.74,4.96,6,6.5,9.78
						c1.54,3.79,2.31,7.98,2.31,12.59c0,4.72-0.81,9.06-2.42,13c-1.61,3.95-3.9,7.36-6.85,10.24s-6.43,5.1-10.43,6.65
						c-4,1.56-8.38,2.33-13.13,2.33c-4.58,0-8.78-0.74-12.59-2.22c-3.82-1.48-7.13-3.59-9.94-6.33c-2.81-2.74-4.97-6-6.5-9.78
						c-1.53-3.79-2.29-8-2.29-12.64c0-4.69,0.81-9.01,2.42-12.96c1.61-3.95,3.89-7.36,6.85-10.24c2.95-2.88,6.43-5.1,10.43-6.65
						C439.69,155.97,444.06,155.19,448.82,155.19z M448.64,214.63c2.88,0,5.42-0.86,7.62-2.57c2.2-1.71,3.94-4.4,5.21-8.08
						c1.27-3.67,1.9-8.46,1.9-14.36c0-6.65-0.65-12.26-1.94-16.82c-1.3-4.56-3.13-8.02-5.51-10.37c-2.38-2.35-5.21-3.52-8.49-3.52
						c-2.85,0-5.39,0.86-7.6,2.57c-2.22,1.71-3.96,4.41-5.23,8.08c-1.27,3.67-1.9,8.46-1.9,14.36c0,6.62,0.65,12.22,1.94,16.8
						c1.3,4.58,3.13,8.04,5.51,10.39C442.53,213.46,445.36,214.63,448.64,214.63z"/>
				</g>
			</g>
		</g>
		<g>
			<g>
				<g>
					<path class="st1" d="M73.13,398.07l-6.47-15.12H37.43l-6.39,15.12h-3.82l23.23-54.56h3.27l23.23,54.56H73.13z M52.08,348.18
						l-13.25,31.34h26.42L52.08,348.18z"/>
				</g>
				<g>
					<path class="st1" d="M143.12,372.11c-0.26,5.51-1.51,10.26-3.74,14.26c-2.24,4-5.28,7.08-9.12,9.24
						c-3.85,2.16-8.29,3.24-13.33,3.24c-5.2,0-9.89-1.19-14.07-3.59c-4.18-2.39-7.46-5.72-9.82-9.98
						c-2.37-4.26-3.55-9.07-3.55-14.42c0-5.4,1.18-10.25,3.55-14.54c2.36-4.29,5.61-7.64,9.74-10.06c4.13-2.42,8.74-3.62,13.84-3.62
						c6.03,0,11.29,1.55,15.78,4.64c4.49,3.09,7.62,7.18,9.39,12.28h-3.74c-1.77-4.05-4.53-7.3-8.3-9.74
						c-3.77-2.44-8.15-3.66-13.13-3.66c-4.42,0-8.43,1.05-12.04,3.16c-3.61,2.1-6.44,5.04-8.5,8.81c-2.05,3.77-3.08,8.02-3.08,12.75
						c0,4.73,1.03,8.95,3.08,12.67c2.05,3.72,4.9,6.61,8.54,8.69c3.64,2.08,7.74,3.12,12.32,3.12c6.24,0,11.29-1.73,15.16-5.18
						c3.87-3.46,6.25-8.33,7.13-14.62h-24.94v-3.43H143.12z"/>
				</g>
				<g>
					<path class="st1" d="M163.62,343.5h3.51v54.56h-3.51V343.5z"/>
				</g>
				<g>
					<path class="st1" d="M194.18,394.64h26.03v3.43h-29.54V343.5h3.51V394.64z"/>
				</g>
				<g>
					<path class="st1" d="M242.58,394.64h27.05v3.43h-30.56V343.5h29.7v3.43h-26.19v21.05h24.16v3.35h-24.16V394.64z"/>
				</g>
				<g>
					<path class="st1" d="M330.59,395.3c-4.26-2.42-7.6-5.77-10.02-10.06c-2.42-4.29-3.63-9.11-3.63-14.46s1.21-10.17,3.63-14.46
						c2.41-4.29,5.75-7.64,10.02-10.06c4.26-2.42,9.06-3.62,14.42-3.62c5.35,0,10.16,1.21,14.42,3.62
						c4.26,2.42,7.61,5.77,10.05,10.06c2.44,4.29,3.66,9.11,3.66,14.46s-1.22,10.17-3.66,14.46c-2.44,4.29-5.79,7.64-10.05,10.06
						c-4.26,2.42-9.07,3.62-14.42,3.62C339.65,398.92,334.85,397.72,330.59,395.3z M357.63,392.22c3.74-2.13,6.67-5.07,8.77-8.81
						c2.11-3.74,3.16-7.95,3.16-12.63c0-4.68-1.05-8.89-3.16-12.63c-2.1-3.74-5.03-6.68-8.77-8.81c-3.74-2.13-7.95-3.2-12.63-3.2
						c-4.62,0-8.81,1.07-12.55,3.2c-3.74,2.13-6.68,5.07-8.81,8.81c-2.13,3.74-3.19,7.95-3.19,12.63c0,4.68,1.06,8.89,3.19,12.63
						s5.07,6.68,8.81,8.81c3.74,2.13,7.93,3.2,12.55,3.2C349.69,395.42,353.89,394.35,357.63,392.22z"/>
				</g>
				<g>
					<path class="st1" d="M421.01,345.61c2.75,1.4,4.87,3.37,6.35,5.89c1.48,2.52,2.22,5.39,2.22,8.61c0,3.22-0.74,6.11-2.22,8.65
						c-1.48,2.55-3.6,4.52-6.35,5.92c-2.75,1.4-5.98,2.1-9.67,2.1h-13.95v21.28h-3.51V343.5h17.46
						C415.03,343.5,418.25,344.2,421.01,345.61z M422.06,369.69c2.62-2.44,3.94-5.64,3.94-9.59c0-3.95-1.33-7.13-3.98-9.55
						c-2.65-2.42-6.26-3.62-10.83-3.62h-13.8v26.43h13.8C415.81,373.36,419.43,372.14,422.06,369.69z"/>
				</g>
				<g>
					<path class="st1" d="M452.34,394.64h27.05v3.43h-30.56V343.5h29.7v3.43h-26.19v21.05h24.16v3.35h-24.16V394.64z"/>
				</g>
				<g>
					<path class="st1" d="M520.08,374.92h-15.82v23.15h-3.51V343.5h19.88c3.33,0,6.26,0.68,8.81,2.03c2.55,1.35,4.52,3.22,5.92,5.61
						c1.4,2.39,2.1,5.12,2.1,8.18c0,4-1.22,7.39-3.66,10.17c-2.44,2.78-5.72,4.51-9.82,5.18l13.87,23.39h-4.05L520.08,374.92z
						 M530.25,350.36c-2.42-2.29-5.65-3.43-9.7-3.43h-16.29v24.63h16.21c4.05,0,7.3-1.16,9.74-3.47c2.44-2.31,3.66-5.26,3.66-8.85
						C533.87,355.61,532.67,352.65,530.25,350.36z"/>
				</g>
				<g>
					<path class="st1" d="M596,398.07l-6.47-15.12H560.3l-6.39,15.12h-3.82l23.23-54.56h3.27l23.23,54.56H596z M574.95,348.18
						l-13.25,31.34h26.43L574.95,348.18z"/>
				</g>
				<g>
					<path class="st1" d="M645.81,343.5v3.43h-17.93v51.13h-3.51v-51.13h-17.93v-3.43H645.81z"/>
				</g>
				<g>
					<path class="st1" d="M672.39,395.3c-4.26-2.42-7.6-5.77-10.02-10.06c-2.42-4.29-3.63-9.11-3.63-14.46s1.21-10.17,3.63-14.46
						c2.42-4.29,5.75-7.64,10.02-10.06c4.26-2.42,9.07-3.62,14.42-3.62c5.35,0,10.16,1.21,14.42,3.62
						c4.26,2.42,7.61,5.77,10.06,10.06c2.44,4.29,3.66,9.11,3.66,14.46s-1.22,10.17-3.66,14.46c-2.44,4.29-5.8,7.64-10.06,10.06
						c-4.26,2.42-9.07,3.62-14.42,3.62C681.45,398.92,676.65,397.72,672.39,395.3z M699.43,392.22c3.74-2.13,6.67-5.07,8.77-8.81
						s3.16-7.95,3.16-12.63c0-4.68-1.05-8.89-3.16-12.63c-2.1-3.74-5.03-6.68-8.77-8.81c-3.74-2.13-7.95-3.2-12.63-3.2
						c-4.63,0-8.81,1.07-12.55,3.2c-3.74,2.13-6.68,5.07-8.81,8.81c-2.13,3.74-3.2,7.95-3.2,12.63c0,4.68,1.06,8.89,3.2,12.63
						c2.13,3.74,5.07,6.68,8.81,8.81c3.74,2.13,7.92,3.2,12.55,3.2C691.48,395.42,695.69,394.35,699.43,392.22z"/>
				</g>
				<g>
					<path class="st1" d="M755.01,374.92h-15.82v23.15h-3.51V343.5h19.88c3.33,0,6.26,0.68,8.81,2.03c2.55,1.35,4.52,3.22,5.92,5.61
						c1.4,2.39,2.1,5.12,2.1,8.18c0,4-1.22,7.39-3.66,10.17c-2.44,2.78-5.72,4.51-9.82,5.18l13.87,23.39h-4.05L755.01,374.92z
						 M765.18,350.36c-2.42-2.29-5.65-3.43-9.7-3.43h-16.29v24.63h16.21c4.05,0,7.3-1.16,9.74-3.47c2.44-2.31,3.66-5.26,3.66-8.85
						C768.81,355.61,767.6,352.65,765.18,350.36z"/>
				</g>
			</g>
		</g>
		<g>
			<g>
				<g>
					<path class="st1" d="M77.93,439.89c-0.16,3.44-0.94,6.41-2.34,8.92c-1.4,2.5-3.3,4.43-5.7,5.77s-5.18,2.02-8.33,2.02
						c-3.25,0-6.18-0.75-8.79-2.24c-2.62-1.49-4.66-3.57-6.14-6.24c-1.48-2.66-2.22-5.67-2.22-9.01c0-3.38,0.74-6.41,2.22-9.09
						c1.48-2.68,3.51-4.77,6.09-6.28c2.58-1.51,5.46-2.27,8.65-2.27c3.77,0,7.06,0.97,9.87,2.9c2.81,1.93,4.77,4.49,5.87,7.67h-2.34
						c-1.1-2.53-2.83-4.56-5.19-6.09c-2.35-1.53-5.09-2.29-8.21-2.29c-2.76,0-5.27,0.66-7.53,1.97c-2.26,1.31-4.03,3.15-5.31,5.5
						c-1.28,2.35-1.92,5.01-1.92,7.97c0,2.96,0.64,5.59,1.92,7.92c1.28,2.32,3.06,4.13,5.33,5.43c2.27,1.3,4.84,1.95,7.7,1.95
						c3.9,0,7.06-1.08,9.48-3.24c2.42-2.16,3.91-5.2,4.46-9.13H59.9v-2.14H77.93z"/>
				</g>
				<g>
					<path class="st1" d="M115.1,441.64h-9.89v14.47h-2.19v-34.1h12.42c2.08,0,3.91,0.42,5.5,1.27c1.59,0.85,2.83,2.01,3.7,3.51
						s1.32,3.2,1.32,5.11c0,2.5-0.76,4.62-2.29,6.36c-1.53,1.74-3.57,2.82-6.14,3.24l8.67,14.62h-2.53L115.1,441.64z M121.46,426.3
						c-1.51-1.43-3.53-2.14-6.07-2.14h-10.18v15.39h10.13c2.53,0,4.56-0.72,6.09-2.17c1.53-1.44,2.29-3.29,2.29-5.53
						C123.72,429.58,122.97,427.73,121.46,426.3z"/>
				</g>
				<g>
					<path class="st1" d="M157.34,454.38c-2.66-1.51-4.75-3.61-6.26-6.28c-1.51-2.68-2.27-5.69-2.27-9.04
						c0-3.34,0.75-6.36,2.27-9.04c1.51-2.68,3.6-4.77,6.26-6.28c2.66-1.51,5.67-2.27,9.01-2.27c3.34,0,6.35,0.75,9.01,2.27
						c2.66,1.51,4.76,3.6,6.28,6.28c1.53,2.68,2.29,5.69,2.29,9.04c0,3.35-0.76,6.36-2.29,9.04c-1.53,2.68-3.62,4.77-6.28,6.28
						c-2.66,1.51-5.67,2.26-9.01,2.26C163.01,456.65,160,455.89,157.34,454.38z M174.24,452.46c2.34-1.33,4.17-3.17,5.48-5.5
						c1.32-2.34,1.97-4.97,1.97-7.89s-0.66-5.55-1.97-7.89c-1.32-2.34-3.14-4.17-5.48-5.51c-2.34-1.33-4.97-2-7.89-2
						c-2.89,0-5.51,0.67-7.84,2c-2.34,1.33-4.17,3.17-5.51,5.51c-1.33,2.34-2,4.97-2,7.89s0.67,5.55,2,7.89
						c1.33,2.34,3.17,4.17,5.51,5.5c2.34,1.33,4.95,2,7.84,2C169.27,454.46,171.91,453.79,174.24,452.46z"/>
				</g>
				<g>
					<path class="st1" d="M249.41,422.01h2.29l-10.77,34.1h-2l-10.52-30.55l-10.52,30.55h-2l-10.77-34.1h2.34l9.55,30.25
						l10.43-30.25h2l10.43,30.21L249.41,422.01z"/>
				</g>
				<g>
					<path class="st1" d="M296.33,422.01v2.14h-11.21v31.96h-2.19v-31.96h-11.21v-2.14H296.33z"/>
				</g>
				<g>
					<path class="st1" d="M343.2,422.01h2.19v34.1h-2.19v-16.66h-20.9v16.66h-2.19v-34.1h2.19v15.3h20.9V422.01z"/>
				</g>
				<g>
					<path class="st1" d="M425.58,456.11l-4.04-9.45h-18.27l-3.99,9.45h-2.39l14.52-34.1h2.05l14.52,34.1H425.58z M412.42,424.93
						l-8.28,19.59h16.52L412.42,424.93z"/>
				</g>
				<g>
					<path class="st1" d="M469.93,424.15c2.65,1.43,4.7,3.43,6.16,6.02c1.46,2.58,2.19,5.53,2.19,8.84c0,3.34-0.73,6.32-2.19,8.91
						c-1.46,2.6-3.52,4.61-6.16,6.04c-2.65,1.43-5.71,2.14-9.18,2.14h-9.94v-34.1h9.94C464.22,422.01,467.29,422.72,469.93,424.15z
						 M468.76,452.09c2.32-1.25,4.12-3,5.38-5.26c1.27-2.26,1.9-4.86,1.9-7.82c0-2.92-0.63-5.51-1.9-7.75
						c-1.27-2.24-3.06-3.99-5.38-5.24c-2.32-1.25-5.01-1.88-8.06-1.88H453v29.82h7.7C463.75,453.97,466.44,453.34,468.76,452.09z"/>
				</g>
				<g>
					<path class="st1" d="M526.27,422.01h2.39l-13.93,34.1h-2l-14.18-34.1h2.44l12.72,30.79L526.27,422.01z"/>
				</g>
				<g>
					<path class="st1" d="M551.66,422.01h2.19v34.1h-2.19V422.01z"/>
				</g>
				<g>
					<path class="st1" d="M582.23,453.75c-2.13-1.93-3.19-4.52-3.19-7.77h2.24c0,2.6,0.86,4.66,2.58,6.19
						c1.72,1.53,4.17,2.29,7.36,2.29c2.89,0,5.13-0.67,6.72-2c1.59-1.33,2.39-3.05,2.39-5.16c0-1.66-0.43-2.97-1.29-3.95
						c-0.86-0.98-1.93-1.71-3.22-2.19c-1.28-0.49-3.01-0.99-5.19-1.51c-2.37-0.59-4.28-1.17-5.72-1.75
						c-1.45-0.59-2.66-1.48-3.65-2.68c-0.99-1.2-1.49-2.82-1.49-4.87c0-1.69,0.42-3.21,1.27-4.55c0.84-1.35,2.09-2.4,3.75-3.17
						c1.66-0.76,3.65-1.14,5.99-1.14c2.24,0,4.18,0.41,5.82,1.24c1.64,0.83,2.9,1.97,3.77,3.43c0.88,1.46,1.32,3.15,1.32,5.07h-2.24
						c0-2.24-0.78-4.06-2.34-5.46c-1.56-1.4-3.7-2.09-6.43-2.09c-2.76,0-4.9,0.62-6.43,1.85c-1.53,1.24-2.29,2.83-2.29,4.77
						c0,1.53,0.41,2.75,1.22,3.65c0.81,0.91,1.83,1.6,3.07,2.07c1.23,0.47,2.95,0.98,5.16,1.54c2.44,0.62,4.39,1.22,5.87,1.8
						c1.48,0.58,2.73,1.5,3.75,2.75c1.02,1.25,1.54,2.95,1.54,5.09c0,1.82-0.45,3.44-1.34,4.87c-0.89,1.43-2.19,2.55-3.9,3.36
						c-1.7,0.81-3.74,1.22-6.11,1.22C587.35,456.65,584.35,455.68,582.23,453.75z"/>
				</g>
				<g>
					<path class="st1" d="M634.53,454.38c-2.66-1.51-4.75-3.61-6.26-6.28c-1.51-2.68-2.26-5.69-2.26-9.04
						c0-3.34,0.75-6.36,2.26-9.04c1.51-2.68,3.6-4.77,6.26-6.28c2.66-1.51,5.67-2.27,9.01-2.27c3.34,0,6.35,0.75,9.01,2.27
						c2.66,1.51,4.76,3.6,6.28,6.28c1.53,2.68,2.29,5.69,2.29,9.04c0,3.35-0.76,6.36-2.29,9.04c-1.53,2.68-3.62,4.77-6.28,6.28
						c-2.66,1.51-5.67,2.26-9.01,2.26C640.19,456.65,637.19,455.89,634.53,454.38z M651.43,452.46c2.34-1.33,4.17-3.17,5.48-5.5
						c1.32-2.34,1.97-4.97,1.97-7.89s-0.66-5.55-1.97-7.89c-1.31-2.34-3.14-4.17-5.48-5.51c-2.34-1.33-4.97-2-7.89-2
						c-2.89,0-5.51,0.67-7.84,2c-2.34,1.33-4.17,3.17-5.51,5.51c-1.33,2.34-2,4.97-2,7.89s0.66,5.55,2,7.89
						c1.33,2.34,3.17,4.17,5.51,5.5c2.34,1.33,4.95,2,7.84,2C646.46,454.46,649.09,453.79,651.43,452.46z"/>
				</g>
				<g>
					<path class="st1" d="M698.44,441.64h-9.89v14.47h-2.19v-34.1h12.42c2.08,0,3.91,0.42,5.51,1.27c1.59,0.85,2.82,2.01,3.7,3.51
						c0.88,1.49,1.32,3.2,1.32,5.11c0,2.5-0.76,4.62-2.29,6.36c-1.53,1.74-3.57,2.82-6.14,3.24l8.67,14.62h-2.53L698.44,441.64z
						 M704.8,426.3c-1.51-1.43-3.53-2.14-6.06-2.14h-10.18v15.39h10.13c2.53,0,4.56-0.72,6.09-2.17c1.53-1.44,2.29-3.29,2.29-5.53
						C707.07,429.58,706.31,427.73,704.8,426.3z"/>
				</g>
				<g>
					<path class="st1" d="M735.25,453.75c-2.13-1.93-3.19-4.52-3.19-7.77h2.24c0,2.6,0.86,4.66,2.58,6.19
						c1.72,1.53,4.17,2.29,7.36,2.29c2.89,0,5.13-0.67,6.72-2c1.59-1.33,2.39-3.05,2.39-5.16c0-1.66-0.43-2.97-1.29-3.95
						c-0.86-0.98-1.93-1.71-3.22-2.19c-1.28-0.49-3.01-0.99-5.19-1.51c-2.37-0.59-4.28-1.17-5.72-1.75
						c-1.45-0.59-2.66-1.48-3.65-2.68c-0.99-1.2-1.49-2.82-1.49-4.87c0-1.69,0.42-3.21,1.27-4.55c0.84-1.35,2.09-2.4,3.75-3.17
						c1.66-0.76,3.65-1.14,5.99-1.14c2.24,0,4.18,0.41,5.82,1.24c1.64,0.83,2.9,1.97,3.77,3.43c0.88,1.46,1.32,3.15,1.32,5.07h-2.24
						c0-2.24-0.78-4.06-2.34-5.46c-1.56-1.4-3.7-2.09-6.43-2.09c-2.76,0-4.9,0.62-6.43,1.85c-1.53,1.24-2.29,2.83-2.29,4.77
						c0,1.53,0.41,2.75,1.22,3.65s1.83,1.6,3.07,2.07c1.23,0.47,2.95,0.98,5.16,1.54c2.44,0.62,4.39,1.22,5.87,1.8
						c1.48,0.58,2.73,1.5,3.75,2.75c1.02,1.25,1.54,2.95,1.54,5.09c0,1.82-0.45,3.44-1.34,4.87c-0.89,1.43-2.19,2.55-3.9,3.36
						c-1.7,0.81-3.74,1.22-6.11,1.22C740.37,456.65,737.37,455.68,735.25,453.75z"/>
				</g>
			</g>
		</g>
	</g>
</g>
</svg>
